<?xml version="1.0" encoding="utf-8"?>
<!-- Generator: Adobe Illustrator 28.0.0, SVG Export Plug-In . SVG Version: 6.00 Build 0)  -->
<svg version="1.1" id="Layer_1" xmlns="http://www.w3.org/2000/svg" xmlns:xlink="http://www.w3.org/1999/xlink" x="0px" y="0px"
	 viewBox="0 0 405.07 134.87" style="enable-background:new 0 0 405.07 134.87;" xml:space="preserve">
<style type="text/css">
	.st0{fill:#FFFFFF;}
	.st1{fill-rule:evenodd;clip-rule:evenodd;fill:#FFFFFF;}
	.st2{fill:#92CDDA;}
	.st3{fill-rule:evenodd;clip-rule:evenodd;fill:#313E48;}
	.st4{fill:#313E48;}
	.st5{fill:none;stroke:#313E48;stroke-width:8.2;stroke-miterlimit:10;}
	.st6{fill:none;stroke:#FFFFFF;stroke-width:8.2;stroke-miterlimit:10;}
</style>
<g>
	<g>
		<path class="st0" d="M295.64,61.72V1.3h22.47c18.84,0,31.62,12.5,31.62,30.26c0,17.75-12.77,30.17-31.62,30.17H295.64z
			 M338.85,31.55c0-11.69-7.25-20.93-20.75-20.93h-11.87v41.76h11.87C331.24,52.39,338.85,42.97,338.85,31.55"/>
		<polygon class="st0" points="362.64,61.72 362.64,1.3 404.04,1.3 404.04,10.63 373.24,10.63 373.24,26.3 403.41,26.3 
			403.41,35.63 373.24,35.63 373.24,52.39 404.04,52.39 404.04,61.72 		"/>
		<path class="st0" d="M0,125.39l5.76-7.97c4.07,4.34,10.45,8.15,18.69,8.15c8.5,0,11.87-4.16,11.87-8.06
			c0-12.4-34.45-4.69-34.45-26.48c0-9.74,8.59-17.27,21.52-17.27c9.21,0,16.65,2.92,22.14,8.24l-5.93,7.71
			c-4.61-4.61-10.89-6.73-17.09-6.73c-6.11,0-10.01,2.92-10.01,7.35c0,10.98,34.36,4.16,34.36,26.21c0,9.83-6.91,18.24-22.85,18.24
			C13.11,134.78,5.22,130.97,0,125.39"/>
		<rect x="57.14" y="74.65" class="st0" width="10.36" height="59.07"/>
		<path class="st0" d="M77.89,104.23c0-18.51,13.9-30.55,30.99-30.55c11.51,0,19.04,5.49,23.82,12.31l-8.5,4.78
			c-3.1-4.43-8.68-7.88-15.32-7.88c-11.69,0-20.37,8.94-20.37,21.34c0,12.4,8.68,21.43,20.37,21.43c6.02,0,11.34-2.83,13.99-5.31
			v-9.21h-17.62v-9.12h27.98v22.14c-5.84,6.46-14.08,10.71-24.35,10.71C91.8,134.87,77.89,122.74,77.89,104.23"/>
		<polygon class="st0" points="185.69,133.72 154.87,91.56 154.87,133.72 144.51,133.72 144.51,74.65 155.14,74.65 185.34,115.65 
			185.34,74.65 195.7,74.65 195.7,133.72 		"/>
		<polygon class="st1" points="45.44,51.62 4.91,1.02 0.02,1.02 0,61.13 5.67,61.13 5.61,10.35 46.13,61.14 51.03,61.14 51.03,1.03 
			45.45,1.03 		"/>
		<polygon class="st1" points="83.69,29.95 62.29,1.03 55.62,1.03 80.99,35.28 81,61.07 86.38,61.06 86.38,35.28 111.75,1.05 
			104.95,1.04 		"/>
		<path class="st1" d="M162.99,36.75c0,2.75-0.55,5.36-1.6,7.8c-1.07,2.45-2.57,4.63-4.42,6.46c-1.86,1.84-4.06,3.29-6.53,4.35
			c-2.44,1.04-5.11,1.57-7.91,1.57c-2.84,0.01-5.53-0.54-7.98-1.6c-2.46-1.08-4.69-2.56-6.56-4.4c-1.88-1.83-3.38-4-4.45-6.45
			c-1.06-2.42-1.58-5.08-1.59-7.87l0-35.56l-5.37,0l-0.01,35.27c0,3.58,0.68,6.96,2.01,10.09c1.34,3.11,3.2,5.86,5.54,8.17
			c2.32,2.31,5.1,4.17,8.23,5.53c3.15,1.36,6.57,2.05,10.2,2.05c3.6,0,7.03-0.68,10.16-2.04c3.1-1.36,5.86-3.22,8.16-5.57
			c2.31-2.33,4.16-5.1,5.49-8.2c1.33-3.12,2.02-6.51,2.02-10.08l0.01-35.21l-5.39,0V36.75z"/>
		<path class="st1" d="M222.98,49.81c-2.25,2.26-4.91,4.02-7.89,5.25c-2.98,1.24-6.11,1.87-9.34,1.87c-3.59,0-7-0.7-10.12-2.07
			c-3.12-1.38-5.88-3.29-8.2-5.67c-2.34-2.38-4.19-5.16-5.53-8.27c-1.32-3.11-2-6.43-1.99-9.89c0-3.45,0.66-6.77,2-9.88
			c1.33-3.12,3.18-5.88,5.52-8.24c2.34-2.35,5.09-4.25,8.23-5.62c3.12-1.37,6.51-2.06,10.1-2.07c3.3,0,6.47,0.66,9.42,1.96
			c2.99,1.32,5.65,3.07,7.91,5.19l1.15,1.08l3.86-3.85l-1.21-1.15c-2.81-2.67-6.01-4.77-9.5-6.24C213.88,0.75,209.96,0,205.76,0
			c-4.31,0-8.45,0.82-12.25,2.43c-3.78,1.61-7.15,3.85-9.98,6.66c-2.84,2.81-5.11,6.13-6.75,9.87c-1.63,3.77-2.47,7.81-2.46,12.04
			c-0.01,4.28,0.81,8.35,2.46,12.12c1.63,3.75,3.9,7.07,6.74,9.88c2.82,2.8,6.17,5.06,9.97,6.68c3.8,1.64,7.92,2.48,12.24,2.48
			c3.94,0,7.76-0.75,11.4-2.22c3.62-1.46,6.9-3.56,9.74-6.25l1.23-1.17l-4.01-3.84L222.98,49.81z"/>
		<polygon class="st1" points="230.82,1.07 230.81,6.3 253.61,6.31 253.6,61.1 258.97,61.11 258.99,6.31 281.77,6.31 281.77,1.07 		
			"/>
		<polygon class="st0" points="208.77,133.72 208.77,74.65 213.82,74.65 213.82,129.11 242.42,129.11 242.42,133.72 		"/>
		<path class="st0" d="M296.82,133.72l-5.84-14.52h-31.26l-5.84,14.52h-5.85l24.18-59.07h6.29l24.18,59.07H296.82z M275.31,80.05
			l-13.9,34.54h27.9L275.31,80.05z"/>
		<path class="st0" d="M310.73,133.72V74.65H335c9.92,0,16.29,5.76,16.29,15.06c0,7.44-5.05,12.49-10.36,13.55
			c6.29,0.97,11.51,7.53,11.51,14.52c0,9.83-6.38,15.94-16.92,15.94H310.73z M345.98,90.23c0-6.02-3.98-10.98-11.6-10.98h-18.6
			v21.87h18.6C342,101.13,345.98,96.35,345.98,90.23 M347.13,117.42c0-6.02-4.16-11.69-12.4-11.69h-18.95v23.38h18.95
			C342.53,129.11,347.13,124.6,347.13,117.42"/>
		<path class="st0" d="M362.48,125.39l3.28-3.81c3.81,4.43,10.01,8.59,18.42,8.59c12.13,0,15.59-6.73,15.59-11.78
			c0-17.36-35.42-8.32-35.42-28.96c0-9.65,8.68-15.76,19.39-15.76c8.86,0,15.41,3.1,20.01,8.32l-3.37,3.72
			c-4.25-5.14-10.27-7.44-16.91-7.44c-7.88,0-13.81,4.52-13.81,10.89c0,15.14,35.42,6.82,35.42,28.87c0,7.62-5.05,16.74-20.99,16.74
			C374.35,134.78,366.99,130.88,362.48,125.39"/>
	</g>
</g>
</svg>
