<svg width="191" height="82" viewBox="0 0 191 82" fill="none" xmlns="http://www.w3.org/2000/svg">
<path opacity="0.6" d="M95.5 0.5C121.82 0.5 145.625 5.08096 162.831 12.4678C171.435 16.1615 178.366 20.5473 183.139 25.3916C187.909 30.2338 190.5 35.5079 190.5 41C190.5 46.4921 187.909 51.7662 183.139 56.6084C178.366 61.4527 171.435 65.8385 162.831 69.5322C145.625 76.919 121.82 81.5 95.5 81.5C69.1798 81.5 45.375 76.919 28.1689 69.5322C19.5652 65.8385 12.634 61.4527 7.86133 56.6084C3.0908 51.7662 0.5 46.4921 0.5 41C0.5 35.5079 3.0908 30.2338 7.86133 25.3916C12.634 20.5473 19.5652 16.1615 28.1689 12.4678C45.375 5.08096 69.1798 0.5 95.5 0.5Z" stroke="black"/>
</svg>
